<svg xmlns="http://www.w3.org/2000/svg" width="600" height="400" viewBox="0 0 600 400">
  <defs><linearGradient id="g" x1="0%" y1="0%" x2="100%" y2="100%"><stop offset="0%" style="stop-color:#1e293b"/><stop offset="100%" style="stop-color:#0f172a"/></linearGradient></defs>
  <rect width="600" height="400" fill="url(#g)"/>
  <text x="300" y="60" text-anchor="middle" fill="#fbbf24" font-family="Segoe UI,sans-serif" font-size="22" font-weight="600">Luxury</text>
  <path d="M115 252h370l-22-68h-95l-18 38h-85l-22 30zm48-73c0-18 14-32 32-32h58c18 0 32 14 32 32h75c0-18 14-32 32-32s32 14 32 32h30l24 73H139l24-73z" fill="rgba(251,191,36,0.95)"/>
  <circle cx="198" cy="258" r="30" fill="#1e293b"/><circle cx="198" cy="258" r="14" fill="#fbbf24"/>
  <circle cx="402" cy="258" r="30" fill="#1e293b"/><circle cx="402" cy="258" r="14" fill="#fbbf24"/>
</svg>
