<svg xmlns="http://www.w3.org/2000/svg" width="600" height="400" viewBox="0 0 600 400">
  <defs><linearGradient id="g" x1="0%" y1="0%" x2="100%" y2="100%"><stop offset="0%" style="stop-color:#6366f1"/><stop offset="100%" style="stop-color:#4f46e5"/></linearGradient></defs>
  <rect width="600" height="400" fill="url(#g)"/>
  <text x="300" y="60" text-anchor="middle" fill="#fff" font-family="Segoe UI,sans-serif" font-size="22" font-weight="600">Sedan</text>
  <path d="M120 255h360l-25-70h-90l-20 35h-80l-25 35zm50-75c0-18 14-32 32-32h56c18 0 32 14 32 32h72c0-18 14-32 32-32s32 14 32 32h28l22 75H142l28-75z" fill="rgba(255,255,255,0.9)"/>
  <circle cx="195" cy="260" r="30" fill="#1e293b"/><circle cx="195" cy="260" r="15" fill="#64748b"/>
  <circle cx="405" cy="260" r="30" fill="#1e293b"/><circle cx="405" cy="260" r="15" fill="#64748b"/>
</svg>
