<svg xmlns="http://www.w3.org/2000/svg" width="600" height="400" viewBox="0 0 600 400">
  <defs><linearGradient id="g" x1="0%" y1="0%" x2="100%" y2="100%"><stop offset="0%" style="stop-color:#059669"/><stop offset="100%" style="stop-color:#047857"/></linearGradient></defs>
  <rect width="600" height="400" fill="url(#g)"/>
  <text x="300" y="60" text-anchor="middle" fill="#fff" font-family="Segoe UI,sans-serif" font-size="22" font-weight="600">SUV</text>
  <path d="M110 250h380l-20-90h-100l-15 40h-90l-25 50zm45-95c0-22 18-40 40-40h80c22 0 40 18 40 40h90c0-22 18-40 40-40s40 18 40 40h45l30 95H125l30-95z" fill="rgba(255,255,255,0.9)"/>
  <circle cx="200" cy="255" r="32" fill="#1e293b"/><circle cx="200" cy="255" r="16" fill="#64748b"/>
  <circle cx="400" cy="255" r="32" fill="#1e293b"/><circle cx="400" cy="255" r="16" fill="#64748b"/>
</svg>
